<svg xmlns="http://www.w3.org/2000/svg" width="64" height="64" viewBox="0 0 64 64"><defs><style>.a,.b{fill:none;}.b{stroke:#d2d2d2;stroke-linecap:round;stroke-linejoin:round;stroke-width:4px;}</style></defs><path class="a" d="M0,0H64V64H0Z"/><path class="b" d="M36,9.333h8A2.667,2.667,0,0,1,46.667,12V41.333a5.333,5.333,0,1,1-10.667,0V6.667A2.667,2.667,0,0,0,33.333,4H6.667A2.667,2.667,0,0,0,4,6.667v32a8,8,0,0,0,8,8H41.333" transform="translate(6.667 6.667)"/><line class="b" x2="11" transform="translate(21 21)"/><line class="b" x2="11" transform="translate(21 32)"/><line class="b" x2="11" transform="translate(21 43)"/></svg>