<svg id="ico_제휴관련" xmlns="http://www.w3.org/2000/svg" width="64" height="64" viewBox="0 0 64 64">
  <path id="패스_13273" data-name="패스 13273" d="M0,0H64V64H0Z" fill="none"/>
  <path id="패스_13274" data-name="패스 13274" d="M36,9.333h8A2.667,2.667,0,0,1,46.667,12V41.333a5.333,5.333,0,1,1-10.667,0V6.667A2.667,2.667,0,0,0,33.333,4H6.667A2.667,2.667,0,0,0,4,6.667v32a8,8,0,0,0,8,8H41.333" transform="translate(6.667 6.667)" fill="none" stroke="#04a6e1" stroke-linecap="round" stroke-linejoin="round" stroke-width="4"/>
  <line id="선_18" data-name="선 18" x2="11" transform="translate(21 21)" fill="none" stroke="#04a6e1" stroke-linecap="round" stroke-linejoin="round" stroke-width="4"/>
  <line id="선_19" data-name="선 19" x2="11" transform="translate(21 32)" fill="none" stroke="#04a6e1" stroke-linecap="round" stroke-linejoin="round" stroke-width="4"/>
  <line id="선_20" data-name="선 20" x2="11" transform="translate(21 43)" fill="none" stroke="#04a6e1" stroke-linecap="round" stroke-linejoin="round" stroke-width="4"/>
</svg>
